<?xml version="1.0" standalone="no"?><!DOCTYPE svg PUBLIC "-//W3C//DTD SVG 1.1//EN" "http://www.w3.org/Graphics/SVG/1.1/DTD/svg11.dtd"><svg t="1767145108952" class="icon" viewBox="0 0 1024 1024" version="1.1" xmlns="http://www.w3.org/2000/svg" p-id="4306" xmlns:xlink="http://www.w3.org/1999/xlink" width="200" height="200"><path d="M512 0C229.2 0 0 229.2 0 512s229.2 512 512 512 512-229.2 512-512S794.8 0 512 0z m231.6 498.4L590.3 692.7l-86.1 109.2-12.1 15.4-9.7 11.7c-6.6 8-19.3 9.7-28.2 3.8-6.2-4.1-9.2-11-7.8-17.8l47.5-230.1H313.5c-22.3 0-40.4-16.2-40.4-36.1 0-2.6 0.3-5.1 0.9-7.6L355.8 202c2-8.3 10.2-14.2 19.7-14.2h204.6c11.2 0 20.2 8.1 20.2 18 0 2.6-0.6 5.1-1.8 7.5L481.9 441.5h228.7c22.3 0 40.4 16.2 40.4 36.1-0.1 7.5-2.6 14.7-7.4 20.8z" fill="#1296db" p-id="4307"></path></svg>